# xmcd CD database file
#
# Track frame offsets:
#	150
#	32182
#	58290
#	89542
#	113265
#	135772
#	166035
#	184267
#
# Disc length: 2887 seconds
#
# Revision: 4
# Processed by: cddbd v1.5.2PL0 Copyright (c) Steve Scherf et al.
# Submitted via: CDex 1.70beta2
#
DISCID=5e0b4508
DTITLE=CARCASS - NECROTICISM - DESCANTING THE INSALUBRIOUS
DYEAR=1991
DGENRE=Death Metal
TTITLE0=Inpropagation
TTITLE1=Corporal Jigsore Quandary
TTITLE2=Symposium Of Sickness
TTITLE3=Pedigree Butchery
TTITLE4=Incarnated Solvent Abuse
TTITLE5=Carneous Cacoffiny
TTITLE6=Lavaging Expectorate Of Lysergide Composition
TTITLE7=Forensic Clinicism - The Sanguine Article
EXTD=YEAR: 1991
EXTT0=
EXTT1=
EXTT2=
EXTT3=
EXTT4=
EXTT5=
EXTT6=
EXTT7=
PLAYORDER=
